HIERARCHY
ROOT pelvis
{
  OFFSET 0 100 0
  CHANNELS 6 Xposition Yposition Zposition Zrotation Xrotation Yrotation
  JOINT pelvis_right_femur
  {
    OFFSET -10.78128 -3.44521 -0.5502486
    CHANNELS 3 Zrotation Xrotation Yrotation
    JOINT right_femur_tibia
    {
      OFFSET -0.8047443 -44.0398 -0.1307829
      CHANNELS 3 Zrotation Xrotation Yrotation
      JOINT right_tibia_foot
      {
        OFFSET 3.006224 -47.83518 -5
        CHANNELS 3 Zrotation Xrotation Yrotation
        End Site
        {
          OFFSET 0 -5 15
        }
      }
    }
  }
  JOINT pelvis_left_femur
  {
    OFFSET 10.78128 -3.44521 -0.5502486
    CHANNELS 3 Zrotation Xrotation Yrotation
    JOINT left_femur_tibia
    {
      OFFSET 0.8047443 -44.0398 -0.1307829
      CHANNELS 3 Zrotation Xrotation Yrotation
      JOINT left_tibia_foot
      {
        OFFSET -4.370144 -48.10324 -4.275266
        CHANNELS 3 Zrotation Xrotation Yrotation
        End Site
        {
          OFFSET 0 -5 15
        }
      }
    }
  }
  JOINT pelvis_spine1
  {
    OFFSET 0 6.468898 -3.129235
    CHANNELS 3 Zrotation Xrotation Yrotation
    JOINT spine1
    {
      OFFSET 0 23.15396 4.99043
      CHANNELS 3 Zrotation Xrotation Yrotation
      JOINT spine2
      {
        OFFSET 0 20.79997 -5.064912
        CHANNELS 3 Zrotation Xrotation Yrotation
        JOINT neck
        {
          OFFSET 0 14.38658 9.616178
          CHANNELS 3 Zrotation Xrotation Yrotation
          End Site
          {
            OFFSET 0 20 0
          }
        }
      }
      JOINT right_manubrium
      {
        OFFSET -5.722621 16.35077 3.967754
        CHANNELS 3 Zrotation Xrotation Yrotation
        JOINT right_clavicle
        {
          OFFSET -13.16364 1.694482 -4.693211
          CHANNELS 3 Zrotation Xrotation Yrotation
          JOINT right_humerus
          {
            OFFSET -28.5034 -0.3100689 -2.792744
            CHANNELS 3 Zrotation Xrotation Yrotation
            JOINT right_radius
            {
              OFFSET -25.15693 0.02248979 -1.271978
              CHANNELS 3 Zrotation Xrotation Yrotation
              End Site
              {
                OFFSET -15 0 0
              }
            }
          }
        }
      }
      JOINT left_manubrium
      {
        OFFSET 5.722621 16.35077 3.967754
        CHANNELS 3 Zrotation Xrotation Yrotation
        JOINT left_clavicle
        {
          OFFSET 13.16364 1.694482 -4.693211
          CHANNELS 3 Zrotation Xrotation Yrotation
          JOINT left_humerus
          {
            OFFSET 29.39168 -1.063119 -2.237045
            CHANNELS 3 Zrotation Xrotation Yrotation
            JOINT left_radius
            {
              OFFSET 24.59957 -0.9528479 0.9047498
              CHANNELS 3 Zrotation Xrotation Yrotation
              End Site
              {
                OFFSET 15 -0 -0
              }
            }
          }
        }
      }
    }
  }
}
MOTION
Frames: 17
Frame Time: 0.0416666666667
364.1124 104.2405 2995.377 0.5023467 -2.524746 8.875988 2.793693 -24.8638 1.499705 -0 21.61921 -0 -5.222545 -2.790032 -3.977706 -5.159065 14.74916 -13.30024 -0 10.12514 -0 -0.2133587 -19.67472 16.75955 -0.373175 -1.225737 3.792356 0.9717537 13.09064 -7.31748 1.342951 22.18112 5.170061 2.714781 -20.10253 6.240098 -1.981342 -19.81898 11.52317 94.20547 21.06239 -20.16624 -0 0 9.804919 -21.033 10.02742 9.175736 5.55843 -25.20109 -7.258007 -85.39223 12.97489 13.12898 0 0 -21.96526 12.79849 11.94798 -3.788814
364.8775 103.161 3000.531 0.217099 -2.238775 9.281881 3.20228 -27.21834 0.859043 -0 16.20766 -0 -5.572922 -2.696616 -4.053937 -4.775243 16.12701 -12.40033 -0 11.01189 -0 -0.8003969 -19.9427 15.6696 -0.3452448 -1.350132 3.530989 1.209929 13.26551 -7.792574 1.244285 22.01366 5.294633 2.812318 -20.2913 6.218606 -1.848575 -19.46738 11.65586 94.90359 21.28113 -21.50965 -0 0 8.775677 -20.78138 10.21139 8.782768 5.697201 -25.98605 -7.487357 -84.68116 12.42029 11.91205 0 0 -23.77933 13.5303 11.87722 -4.709079
365.6342 101.9742 3006.103 0.07068924 -2.375961 9.629718 3.512471 -28.29886 0.2938651 -0 12.15498 -0 -5.603552 -2.092777 -4.274369 -4.443352 16.85121 -11.11945 -0 13.84646 -0 -1.888104 -19.63065 14.40245 -0.3210818 -1.466336 3.354437 1.404416 13.42876 -8.173733 1.151612 21.85666 5.395855 2.901388 -20.46853 6.183729 -1.721943 -19.24788 11.78102 95.42827 21.49919 -22.55179 -0 0 8.036724 -20.57628 10.36067 8.483027 5.796163 -26.61962 -7.667857 -84.17907 11.9264 11.09193 0 0 -25.17513 14.14241 11.81885 -5.471526
366.3998 100.8835 3012.136 0.06313214 -2.885641 9.899793 3.841543 -28.08396 0.002846172 -0 9.723008 -0 -5.427453 -1.271146 -4.619582 -4.178601 16.86401 -9.702222 -0 18.95847 -0 -3.230147 -18.65276 13.19544 -0.30107 -1.570465 3.258605 1.5526 13.57539 -8.457328 1.067959 21.71542 5.472782 2.979336 -20.62854 6.138893 -1.605092 -19.1516 11.89474 95.77652 21.71497 -23.28903 -0 0 7.579915 -20.41974 10.47413 8.276639 5.857531 -27.095 -7.798488 -83.87003 11.51505 10.64661 0 0 -26.15023 14.62515 11.7772 -6.065092
367.1666 100.1155 3018.547 0.1731005 -3.668853 10.05394 4.301165 -26.55929 0.1771452 -0 8.996106 -0 -5.205885 -0.6477095 -5.029521 -3.966603 16.03491 -8.442025 -0 26.37284 -0 -4.506571 -16.98156 12.33997 -0.2849817 -1.65898 3.247193 1.648344 13.70379 -8.634218 0.9956208 21.59366 5.522649 3.043453 -20.76301 6.084061 -1.503199 -19.18242 11.99485 95.93447 21.92303 -23.69685 -0 0 7.420081 -20.32626 10.5526 8.173832 5.879637 -27.399 -7.878261 -83.75251 11.19736 10.58465 0 0 -26.67779 14.96355 11.75389 -6.473012
367.9033 99.86392 3025.13 0.3577042 -4.584705 10.04097 4.91859 -23.74693 0.8878941 -0 9.789528 -0 -5.104255 -0.6438043 -5.399708 -3.771178 14.20084 -7.592358 -0 35.50303 -0 -5.420085 -14.71186 12.0804 -0.2718377 -1.728919 3.336004 1.680254 13.81661 -8.685991 0.9359601 21.49335 5.539713 3.090886 -20.86119 6.014349 -1.423284 -19.36462 12.08132 95.86912 22.11486 -23.71632 -0 0 7.608904 -20.32504 10.59716 8.199274 5.854996 -27.50664 -7.904869 -83.84814 10.97441 10.96509 0 0 -26.68799 15.13475 11.74878 -6.669367
368.5743 100.2067 3031.632 0.5555594 -5.465793 9.814024 5.591661 -19.78663 1.9817 -0 11.50226 -0 -5.224546 -1.514396 -5.603234 -3.542535 11.26004 -7.235641 -0 44.89393 -0 -5.814838 -12.10961 12.48322 -0.260004 -1.77862 3.550807 1.63349 13.9206 -8.587834 0.88899 21.41411 5.516177 3.119256 -20.91223 5.920593 -1.372683 -19.73987 12.15664 95.53297 22.28016 -23.2626 -0 0 8.227777 -20.45484 10.60836 8.388124 5.771455 -27.3852 -7.874851 -84.19935 10.83541 11.8895 0 0 -26.07808 15.11239 11.76035 -6.623962
369.1689 101.0459 3037.866 0.7028395 -6.157621 9.353252 6.143081 -14.98948 3.10214 -0 13.15019 -0 -5.549044 -3.215675 -5.537486 -3.219702 7.269073 -7.205554 -0 52.46545 -0 -5.736379 -9.571805 13.37947 -0.2477824 -1.808732 3.914354 1.497099 14.02406 -8.321787 0.8529973 21.35272 5.446358 3.128091 -20.90992 5.793476 -1.355105 -20.34605 12.22527 94.88959 22.40844 -22.26919 -0 0 9.345671 -20.74712 10.58727 8.768841 5.618386 -27.0127 -7.786193 -84.84747 10.75463 13.44701 0 0 -24.76876 14.88055 11.78494 -6.318801
369.7168 102.1286 3043.792 0.7581371 -6.565272 8.677025 6.450027 -9.773108 3.884841 -0 13.76502 -0 -5.966009 -5.465648 -5.161571 -2.735945 2.457912 -7.193158 -0 56.41764 -0 -5.353494 -7.472624 14.47659 -0.2343978 -1.822626 4.425812 1.274414 14.13224 -7.896034 0.8247808 21.3033 5.332754 3.120261 -20.85744 5.630476 -1.366066 -21.18252 12.29196 93.9522 22.49169 -20.75475 -0 0 10.95332 -21.20335 10.53849 9.338054 5.396303 -26.40426 -7.642662 -85.79471 10.69317 15.62565 0 0 -22.79016 14.45152 11.81557 -5.769359
370.2736 103.1426 3049.488 0.7174343 -6.672456 7.833109 6.511594 -4.515219 4.156873 -0 12.89548 -0 -6.358356 -7.947813 -4.500331 -2.04592 -2.84772 -6.961592 -0 56.07711 -0 -4.819168 -6.009881 15.54487 -0.2205945 -1.825362 5.051107 0.9867967 14.24406 -7.35194 0.8007167 21.25902 5.188283 3.101691 -20.76729 5.439765 -1.392264 -22.19302 12.35991 92.7978 22.52913 -18.85039 -0 0 12.93373 -21.78696 10.4725 10.05064 5.121303 -25.62087 -7.455696 -86.98116 10.61184 18.27056 0 0 -20.31688 13.86942 11.84238 -5.029242
370.894 103.8137 3055.068 0.6097689 -6.527918 6.882108 6.396042 0.5295533 3.957839 -0 10.76247 -0 -6.650439 -10.42115 -3.625743 -1.158298 -8.305407 -6.448641 -0 51.91175 -0 -4.216986 -5.188695 16.49268 -0.2082337 -1.821814 5.736183 0.6654784 14.35349 -6.748704 0.7779281 21.21414 5.031534 3.079168 -20.6557 5.236729 -1.416414 -23.28706 12.43022 91.53604 22.53083 -16.75021 -0 0 15.10681 -22.44004 10.40417 10.83805 4.818858 -24.74681 -7.240986 -88.30369 10.48842 21.14229 0 0 -17.60393 13.19305 11.85572 -4.169457
371.617 103.9616 3060.626 0.4822996 -6.222383 5.887325 6.160291 5.194411 3.441154 -0 8.074197 -0 -6.792663 -12.67873 -2.637149 -0.1495172 -13.56646 -5.729322 -0 45.00627 -0 -3.595305 -4.910811 17.31794 -0.1994457 -1.81549 6.426548 0.3408679 14.45293 -6.143206 0.7548153 21.16513 4.880342 3.058263 -20.53729 5.037883 -1.422939 -24.37285 12.50252 90.26896 22.51635 -14.643 -0 0 17.29349 -23.10484 10.34863 11.63294 4.514677 -23.86141 -7.013793 -89.65212 10.32523 24.00363 0 0 -14.89853 12.47673 11.84908 -3.255545
372.4617 103.5245 3066.224 0.385988 -5.872635 4.911935 5.816276 9.321023 2.79763 -0 5.795374 -0 -6.742558 -14.48307 -1.653673 0.8314877 -18.24401 -4.963794 -0 36.6827 -0 -3.007561 -5.050234 18.04187 -0.1960495 -1.808484 7.076112 0.03797488 14.53541 -5.581377 0.7309935 21.11091 4.748801 3.04267 -20.42355 4.857658 -1.400877 -25.37323 12.57526 89.07521 22.50986 -12.68209 -0 0 19.34429 -23.73252 10.31816 12.3796 4.230505 -23.02783 -6.787137 -90.92967 10.14537 26.66001 0 0 -12.401 11.76457 11.82028 -2.340866
373.4295 102.569 3071.887 0.3646045 -5.608925 4.018293 5.337487 12.72143 2.222762 -0 4.95039 -0 -6.466911 -15.56058 -0.8116681 1.570928 -21.91425 -4.366716 -0 28.35836 -0 -2.527145 -5.478424 18.673 -0.1992551 -1.801946 7.648574 -0.2240801 14.59551 -5.097403 0.7069534 21.05244 4.646722 3.034379 -20.32333 4.707416 -1.344647 -26.22902 12.64602 88.01093 22.53494 -10.9819 -0 0 21.1434 -24.28367 10.32053 13.03478 3.983392 -22.29293 -6.571844 -92.05944 9.983539 28.96601 0 0 -10.25973 11.09224 11.77151 -1.46907
374.5083 101.2784 3077.63 0.4453832 -5.551058 3.266461 4.685893 15.20611 1.879194 -0 6.364832 -0 -5.951721 -15.66041 -0.2473355 1.847535 -24.19395 -4.145444 -0 21.35523 -0 -2.240519 -6.074913 19.19361 -0.2094918 -1.796558 8.117799 -0.4319793 14.62999 -4.714192 0.68363 20.99202 4.579709 3.034064 -20.24345 4.594899 -1.253897 -26.90017 12.71177 87.11354 22.61014 -9.619533 -0 0 22.60905 -24.72828 10.35829 13.56736 3.785488 -21.6888 -6.376677 -92.98699 9.875295 30.8249 0 0 -8.57243 10.4888 11.70858 -0.6764941
375.6772 99.90819 3083.466 0.632737 -5.769327 2.711231 3.849523 16.63864 1.842938 -0 10.36409 -0 -5.208235 -14.64996 -0.06003622 1.540548 -24.8552 -4.398616 -0 16.56409 -0 -2.219865 -6.750541 19.56295 -0.2263802 -1.792912 8.467333 -0.5776975 14.63809 -4.444752 0.6619896 20.9325 4.549682 3.041531 -20.18909 4.524141 -1.132577 -27.36478 12.76941 86.40645 22.74642 -8.639557 -0 0 23.69116 -25.04542 10.42919 13.95731 3.644274 -21.23513 -6.208555 -93.67912 9.848226 32.183 0 0 -7.391949 9.978008 11.63972 0.006237419
376.9118 98.71805 3089.417 0.90872 -6.249494 2.396559 2.871906 16.95477 2.07662 -0 16.61557 -0 -4.277562 -12.59472 -0.2788734 0.7000835 -23.88836 -5.065001 -0 14.19275 -0 -2.482241 -7.470844 19.73939 -0.2489172 -1.791789 8.687363 -0.6566796 14.62106 -4.295927 0.6427203 20.87656 4.556274 3.056282 -20.16449 4.496411 -0.987114 -27.6134 12.81616 85.90638 22.94785 -8.066656 -0 0 24.36068 -25.22065 10.52791 14.1919 3.564057 -20.9444 -6.073289 -94.11626 9.918359 33.01336 0 0 -6.743045 9.580767 11.57415 0.551395
